<?xml version="1.0" standalone="no"?>
<!DOCTYPE svg PUBLIC "-//W3C//DTD SVG 20010904//EN"
 "http://www.w3.org/TR/2001/REC-SVG-20010904/DTD/svg10.dtd">
<svg version="1.0" xmlns="http://www.w3.org/2000/svg"
 width="327.000000pt" height="356.000000pt" viewBox="0 0 327.000000 356.000000"
 preserveAspectRatio="xMidYMid meet">

<g transform="translate(0.000000,356.000000) scale(0.100000,-0.100000)"
fill="#000000" stroke="none">
<path d="M1503 3453 c9 -2 23 -2 30 0 6 3 -1 5 -18 5 -16 0 -22 -2 -12 -5z"/>
<path d="M1778 3453 c7 -3 16 -2 19 1 4 3 -2 6 -13 5 -11 0 -14 -3 -6 -6z"/>
<path d="M1418 3443 c6 -2 18 -2 25 0 6 3 1 5 -13 5 -14 0 -19 -2 -12 -5z"/>
<path d="M1848 3443 c6 -2 18 -2 25 0 6 3 1 5 -13 5 -14 0 -19 -2 -12 -5z"/>
<path d="M1368 3433 c7 -3 16 -2 19 1 4 3 -2 6 -13 5 -11 0 -14 -3 -6 -6z"/>
<path d="M2237 3329 c7 -7 15 -10 18 -7 3 3 -2 9 -12 12 -14 6 -15 5 -6 -5z"/>
<path d="M2300 3296 c0 -2 7 -7 16 -10 8 -3 12 -2 9 4 -6 10 -25 14 -25 6z"/>
<path d="M2440 3216 c0 -2 8 -10 18 -17 15 -13 16 -12 3 4 -13 16 -21 21 -21
13z"/>
<path d="M2645 3041 c45 -47 96 -104 114 -126 30 -36 31 -37 10 -5 -13 19 -64
76 -114 126 l-90 90 80 -85z"/>
<path d="M635 3048 l-40 -43 43 40 c39 36 47 45 39 45 -2 0 -21 -19 -42 -42z"/>
<path d="M554 2958 c-30 -34 -47 -58 -42 -58 3 0 19 18 37 40 34 43 38 55 5
18z"/>
<path d="M1738 2953 c7 -3 16 -2 19 1 4 3 -2 6 -13 5 -11 0 -14 -3 -6 -6z"/>
<path d="M1688 2943 c7 -3 16 -2 19 1 4 3 -2 6 -13 5 -11 0 -14 -3 -6 -6z"/>
<path d="M1788 2943 c7 -3 16 -2 19 1 4 3 -2 6 -13 5 -11 0 -14 -3 -6 -6z"/>
<path d="M1645 2930 c-3 -6 1 -7 9 -4 18 7 21 14 7 14 -6 0 -13 -4 -16 -10z"/>
<path d="M1880 2916 c0 -2 9 -6 20 -9 11 -3 18 -1 14 4 -5 9 -34 13 -34 5z"/>
<path d="M1599 2893 c-13 -16 -12 -17 4 -4 9 7 17 15 17 17 0 8 -8 3 -21 -13z"/>
<path d="M1931 2897 c17 -14 79 -48 79 -44 0 7 -65 47 -75 47 -5 0 -6 -1 -4
-3z"/>
<path d="M489 2873 c-13 -16 -12 -17 4 -4 16 13 21 21 13 21 -2 0 -10 -8 -17
-17z"/>
<path d="M1662 2844 c-17 -16 -310 -355 -651 -753 l-620 -724 16 -30 c15 -30
16 -31 32 -11 9 11 299 349 644 752 621 723 629 732 665 732 195 -2 610 -410
639 -630 20 -145 -256 -29 -466 196 -72 77 -136 186 -129 221 2 11 13 19 28
21 23 3 25 0 25 -42 0 -37 9 -57 48 -115 104 -151 271 -257 327 -206 49 44 2
146 -124 270 -108 106 -180 148 -261 153 l-61 4 -652 -717 c-359 -394 -652
-720 -652 -723 0 -4 8 -17 18 -29 19 -23 -6 -49 978 1039 142 158 261 287 264
287 3 1 21 -29 40 -67 68 -133 305 -337 459 -395 l61 -23 -101 -88 c-115 -101
-100 -99 -214 -18 -93 65 -172 138 -236 217 -29 36 -55 65 -58 65 -7 0 -284
-298 -289 -311 -7 -16 194 -211 274 -266 46 -31 84 -60 84 -64 0 -4 -16 -21
-37 -38 -34 -28 -38 -29 -64 -16 -60 31 -193 140 -256 211 -37 41 -75 74 -83
74 -24 0 -40 -21 -40 -50 0 -35 142 -178 247 -250 43 -29 80 -55 82 -57 3 -2
-9 -18 -26 -35 l-32 -31 -68 44 c-37 24 -116 90 -175 147 -95 93 -109 102
-127 92 -14 -7 -21 -21 -21 -42 0 -25 15 -45 83 -113 45 -45 117 -105 159
-132 l77 -50 -34 -33 -33 -32 -78 53 c-44 29 -117 90 -163 136 -90 91 -118
101 -135 51 -9 -25 -5 -33 40 -80 66 -71 137 -132 206 -176 32 -20 57 -39 57
-42 0 -3 -15 -17 -33 -32 l-33 -27 -74 50 c-41 28 -110 86 -154 130 -44 43
-87 79 -96 79 -22 0 -39 -21 -39 -49 0 -33 127 -159 223 -221 37 -24 67 -47
67 -51 0 -4 -15 -18 -33 -32 l-33 -25 -69 46 c-39 26 -106 82 -149 124 -43 43
-85 78 -92 78 -22 0 -47 -46 -36 -66 19 -34 139 -147 204 -191 38 -26 68 -50
68 -54 0 -4 -14 -19 -32 -32 l-32 -25 -60 41 c-34 22 -98 76 -143 120 -72 70
-83 77 -102 68 -11 -7 -24 -23 -27 -37 -6 -22 2 -35 52 -85 33 -33 94 -84 136
-113 67 -45 75 -55 63 -67 -12 -12 -10 -16 14 -30 l29 -17 134 117 c1033 897
1351 1178 1360 1200 38 98 -74 312 -260 497 -158 157 -307 246 -422 252 -63 4
-69 2 -98 -24z m288 -284 c57 -29 160 -129 199 -194 19 -31 31 -59 28 -62 -22
-22 -190 123 -246 211 -45 71 -43 77 19 45z"/>
<path d="M2790 2866 c0 -2 8 -10 18 -17 15 -13 16 -12 3 4 -13 16 -21 21 -21
13z"/>
<path d="M1405 2670 c-88 -103 -164 -185 -169 -182 -5 3 -6 0 -3 -5 8 -13 -17
-36 -28 -25 -5 4 -5 2 -2 -4 6 -10 -36 -66 -92 -124 -12 -14 -35 -40 -49 -58
-21 -28 -27 -31 -34 -18 -5 9 -16 16 -23 16 -11 0 -15 12 -15 40 l0 40 -325 0
c-210 0 -325 4 -325 10 0 21 -20 9 -21 -12 -1 -21 -2 -21 -6 -3 -9 35 -23 41
-24 9 0 -27 -1 -28 -11 -8 -7 16 -6 37 7 79 9 31 14 59 11 62 -6 6 -21 -47
-48 -172 -31 -143 -31 -397 0 -541 31 -145 61 -236 74 -228 7 4 8 2 4 -5 -7
-11 23 -101 34 -100 11 1 85 100 82 110 -1 6 2 8 7 5 12 -8 73 69 63 79 -4 5
-2 5 4 2 12 -7 121 119 116 135 -1 5 2 7 7 4 12 -8 53 49 43 59 -4 5 -2 5 4 2
14 -8 48 28 40 41 -6 11 18 35 26 26 9 -8 48 47 41 59 -3 5 -2 7 4 4 15 -9 57
39 48 54 -5 7 -4 10 2 6 13 -8 46 27 36 38 -5 4 -3 5 4 1 14 -8 36 27 25 39
-4 5 -2 5 4 2 10 -6 661 740 652 747 -2 2 -75 -81 -163 -184z m-1145 -427
c-16 -119 -17 -125 -19 -74 -1 46 19 174 27 166 2 -2 -1 -44 -8 -92z m740 -43
c-12 -17 -26 -27 -33 -23 -7 4 -6 8 3 11 8 3 21 13 28 24 7 10 15 18 18 18 3
0 -4 -14 -16 -30z m-58 -72 c-7 -7 -12 -8 -12 -2 0 14 12 26 19 19 2 -3 -1
-11 -7 -17z m-705 -100 c-2 -18 -4 -4 -4 32 0 36 2 50 4 33 2 -18 2 -48 0 -65z"/>
<path d="M452 2823 c-10 -16 -24 -38 -31 -50 -21 -41 -5 -24 27 27 33 54 36
68 4 23z"/>
<path d="M2085 2799 c22 -18 89 -81 150 -139 60 -58 87 -80 60 -50 -62 68
-175 172 -218 200 -23 16 -21 12 8 -11z"/>
<path d="M2830 2811 c0 -6 4 -13 10 -16 6 -3 7 1 4 9 -7 18 -14 21 -14 7z"/>
<path d="M2860 2760 c6 -11 13 -20 16 -20 2 0 0 9 -6 20 -6 11 -13 20 -16 20
-2 0 0 -9 6 -20z"/>
<path d="M2210 2715 c19 -19 36 -35 39 -35 3 0 -10 16 -29 35 -19 19 -36 35
-39 35 -3 0 10 -16 29 -35z"/>
<path d="M2907 2675 c15 -30 29 -53 31 -51 4 5 -46 106 -53 106 -3 0 7 -25 22
-55z"/>
<path d="M360 2657 c-41 -90 -37 -99 5 -13 19 39 32 72 30 74 -3 3 -18 -25
-35 -61z"/>
<path d="M312 2545 c-7 -14 -12 -31 -12 -38 1 -7 7 3 16 22 17 39 13 54 -4 16z"/>
<path d="M2961 2560 c-1 -3 10 -40 24 -83 32 -103 50 -200 36 -205 -5 -2 -8
-9 -5 -17 3 -7 1 -16 -5 -19 -6 -4 -8 16 -5 59 3 43 1 65 -6 65 -6 0 -9 8 -6
18 5 16 -9 17 -229 14 -198 -2 -235 -5 -235 -17 0 -8 -7 -15 -16 -15 -12 0
-14 -7 -9 -32 10 -43 5 -38 -44 57 -23 44 -59 100 -81 125 -36 40 -35 37 12
-30 29 -41 69 -109 88 -150 31 -67 35 -84 35 -157 0 -52 -5 -87 -12 -94 -7 -7
-13 -17 -13 -22 0 -4 6 -5 13 -1 6 4 3 -2 -7 -14 -23 -26 -34 -29 -15 -4 11
14 10 14 -8 -2 -13 -10 -20 -22 -18 -26 3 -4 -3 -14 -12 -21 -12 -10 -14 -10
-9 -1 15 25 -11 11 -45 -24 -31 -33 -31 -35 -6 -19 37 24 34 14 -4 -14 -18
-13 -29 -19 -25 -12 15 24 -8 9 -70 -45 -35 -31 -62 -61 -61 -67 1 -7 -4 -11
-12 -9 -17 4 -52 -28 -45 -40 3 -4 0 -7 -8 -6 -7 2 -12 -3 -10 -10 1 -8 -2
-11 -7 -8 -8 5 -1111 -945 -1118 -963 -3 -7 111 -55 198 -82 167 -52 356 -73
538 -58 541 43 1011 394 1207 899 105 272 123 601 49 879 -21 79 -52 165 -54
151z m-422 -394 c1 -84 -5 -66 -11 29 -3 44 -2 69 2 55 5 -14 8 -52 9 -84z
m498 42 c-2 -13 -4 -3 -4 22 0 25 2 35 4 23 2 -13 2 -33 0 -45z m10 -75 c-3
-10 -5 -2 -5 17 0 19 2 27 5 18 2 -10 2 -26 0 -35z m0 -205 c-3 -7 -5 -2 -5
12 0 14 2 19 5 13 2 -7 2 -19 0 -25z"/>
<path d="M2952 2505 c0 -16 2 -22 5 -12 2 9 2 23 0 30 -3 6 -5 -1 -5 -18z"/>
<path d="M312 2435 c0 -16 2 -22 5 -12 2 9 2 23 0 30 -3 6 -5 -1 -5 -18z"/>
<path d="M2960 2435 c0 -14 5 -25 10 -25 6 0 10 11 10 25 0 14 -4 25 -10 25
-5 0 -10 -11 -10 -25z"/>
<path d="M110 290 l0 -200 43 0 42 0 -3 93 c-2 51 -2 115 0 142 l3 49 93 -142
94 -142 44 0 44 0 0 200 0 200 -40 0 -39 0 -3 -137 -3 -138 -89 138 -88 137
-49 0 -49 0 0 -200z"/>
<path d="M570 290 l0 -200 120 0 120 0 0 35 0 34 -77 3 c-73 3 -76 4 -79 28
-5 54 2 60 72 60 l64 0 0 35 0 34 -67 3 -68 3 0 45 0 45 73 3 72 3 0 34 0 35
-115 0 -115 0 0 -200z"/>
<path d="M890 303 c27 -102 51 -192 54 -200 4 -8 23 -13 55 -13 l50 0 15 53
c8 28 25 91 37 140 13 48 26 82 29 75 4 -7 22 -71 40 -141 l33 -128 50 3 51 3
48 185 c26 102 48 191 48 198 0 7 -14 12 -39 12 -46 0 -39 14 -77 -165 -14
-72 -28 -131 -29 -133 -2 -2 -15 48 -30 110 -49 209 -39 190 -93 186 l-47 -3
-41 -150 c-31 -111 -43 -144 -48 -125 -10 43 -56 265 -56 273 0 4 -22 7 -49 7
l-49 0 48 -187z"/>
<path d="M1460 291 l0 -201 45 0 45 0 0 70 0 70 50 0 c92 0 150 50 150 127 0
55 -20 95 -57 113 -15 7 -74 15 -130 18 l-103 4 0 -201z m182 112 c44 -39 7
-113 -57 -113 l-35 0 0 65 0 65 37 0 c20 0 45 -7 55 -17z"/>
<path d="M1847 413 c-16 -43 -48 -133 -73 -201 l-44 -122 49 0 49 0 11 45 11
45 75 0 75 0 11 -45 11 -45 50 0 c44 0 49 2 43 18 -4 9 -33 91 -65 182 -32 91
-62 173 -65 183 -6 13 -19 17 -59 17 l-51 0 -28 -77z m122 -155 c1 -15 -8 -18
-42 -18 -24 0 -46 3 -49 6 -3 3 6 41 21 86 l26 80 22 -68 c12 -38 22 -77 22
-86z"/>
<path d="M2180 291 l0 -201 40 0 39 0 3 68 3 67 60 6 c71 7 107 27 129 74 20
41 20 66 2 110 -23 55 -54 68 -172 73 l-104 5 0 -202z m173 117 c9 -7 19 -25
22 -40 10 -39 -33 -80 -78 -76 -32 3 -32 3 -35 66 l-3 62 39 0 c21 0 46 -6 55
-12z"/>
<path d="M2530 290 l0 -200 120 0 120 0 0 35 0 35 -75 0 -75 0 0 45 0 45 65 0
65 0 0 35 0 35 -65 0 -65 0 0 50 0 50 70 0 70 0 0 35 0 35 -115 0 -115 0 0
-200z"/>
<path d="M2840 290 l0 -200 40 0 40 0 0 75 c0 73 1 75 24 75 27 0 55 -30 98
-104 27 -45 29 -46 78 -46 l50 0 -37 58 c-20 31 -50 71 -66 89 l-29 31 23 12
c41 21 59 52 59 101 0 81 -50 109 -197 109 l-83 0 0 -200z m178 118 c17 -17
15 -58 -5 -80 -10 -11 -30 -18 -55 -18 l-38 0 0 55 0 55 43 0 c24 0 48 -5 55
-12z"/>
</g>
</svg>
